<svg xmlns="http://www.w3.org/2000/svg" viewBox="0 0 519.66 707.4"><defs><style>.cls-1,.cls-4,.cls-5,.cls-6,.cls-7{fill:#fff;}.cls-2,.cls-8,.cls-9{fill:#022868;}.cls-3{fill:#ecb73b;}.cls-4{font-size:28.61px;font-family:HelveticaNeue-Medium, Helvetica Neue;}.cls-4,.cls-8,.cls-9{font-weight:500;}.cls-5{font-size:19.5px;}.cls-5,.cls-6,.cls-7{font-family:HelveticaNeue-CondensedBold, Helvetica Neue;font-weight:700;}.cls-6{font-size:45.47px;}.cls-7{font-size:27px;}.cls-8{font-size:154.95px;}.cls-8,.cls-9{font-family:Ancient-Medium, Ancient;}.cls-9{font-size:66.84px;}</style></defs><title>Asset 1</title><g id="Layer_2" data-name="Layer 2"><g id="Layer_1-2" data-name="Layer 1"><path class="cls-1" d="M435.42,0H84.24A52.12,52.12,0,0,0,32.41,46.64L0,353.7H519.66L487.25,46.64A52.12,52.12,0,0,0,435.42,0Z"/><path class="cls-2" d="M0,353.7,32.41,660.76A52.12,52.12,0,0,0,84.24,707.4H435.42a52.12,52.12,0,0,0,51.83-46.64L519.66,353.7Z"/><path class="cls-3" d="M366.43,291.43a7.76,7.76,0,0,1-8.62-4.05s-1.21,6,5.75,7.42c0,0,1.44-.48,1.66,2.15s2.41,4.3,4.32,5.76.47,5,.95,6,2.63,3.59,2.63,7,.48,6.45,5.28,8.37a15.58,15.58,0,0,1,7.18,6.46s4.54-3.11,8.37-3.83c0,0,5-12.69,16.28-14.61,0,0,.95.72.48,2.87,0,0-11.49,3.12-13.16,14.35,0,0-.25,2.65,3.11,1.69s8.37-4.07,17.94-.48c0,0,1.21,2.64-.94,3.11,0,0-9.1-4.07-15.56.24s-6.7,9.11-6.7,9.11h44.05a9.06,9.06,0,0,0-3.85-7s3.85-3.11,4.32-4.31c0,0,15.81,12.22,33,11.49s19.13-12.68,19.13-14.83-1.19-9.58-9.56-9.58-6.23,8.39-6.23,8.39,2.64,6.69,8.85,1.43c0,0,2.86,10.77-15.55,9.58s-33.79-22-35.44-29.69c-.72-3.35-5-2.87-5-2.87s-5.26.72-4.8-3.84-3.11-5.5-9.81-5.75c0,0,1.67-12.45-8.63-11.73,0,0,7.18,8.14,1.46,10.77s-8.63,2.63-12.22,11c0,0-7.18,1.67-10.06-2.64s1.44-9.1,4.8-10.54c0,0-5.28-.94-7.67-3.83s-6-9.58-12.44-6.71c0,0-7.91-5.76-11.25.24,0,0,5.28.25,6.23,3.34s2.87,3.87,1.68,5.54Z"/><path class="cls-3" d="M380.32,342.69l10.05.47s3.33-7.18,5-8.62,1.67-5.75-4.32-3.59S380.81,340.77,380.32,342.69Zm105.83-36.64s-6,4.3-6,9.34h4.54A12.22,12.22,0,0,1,486.15,306.05Zm-69-13.41,2.4.71s10.3-14.36-4.07-17a16.88,16.88,0,0,1,1.67,16.29Zm3.37-18.19s3.59-35.92-13.64-28.5c0,0,7.9,1.66,9.82,26.81l3.82,1.69Zm10.29.71,3.34,1.92s12.7-30.9-7.91-32.32C426.27,244.76,434.67,262.72,430.84,275.16Zm12.43,7,1.92,2.15s19.4-16.54,6.23-26.82c0,0-1.67,18.67-8.15,24.67Zm3.84,8.37v3.12s21.07.71,18-13.89A29.19,29.19,0,0,1,447.11,290.49Zm-1.92,8.13-.94,2.87s15.54,8.63,17.72-2.63c0,0-5.76,2.64-16.78-.24Zm-2.4,6.7-2.13,1.92S450,322.8,456,311.31A17.93,17.93,0,0,1,442.79,305.32Zm-14.35-26.81s4.55,4.8-3.11,17.25c0,0,2.63.73,1.92,6,0,0,7.42-.73,11.49,1.44a7.49,7.49,0,0,0,1.19-6.7l3.59-.73.25-3.59s-3.59,1.21-4.54,1c0,0,5-4.31,1.66-8.38,0,0-3.11,5-7.64,6.46,0,0,3.82-11.49-4.81-12.7ZM153.23,291.69a7.77,7.77,0,0,0,8.62-4.07s1.21,6-5.74,7.43c0,0-1.45-.48-1.68,2.15s-2.39,4.3-4.3,5.74-.48,5-1,6-2.65,3.57-2.65,6.94-.46,6.46-5.26,8.37a15.52,15.52,0,0,0-7.18,6.47s-4.54-3.11-8.36-3.84c0,0-5-12.7-16.29-14.61,0,0-1,.72-.48,2.87,0,0,11.51,3.13,13.16,14.36,0,0,.25,2.64-3.11,1.67s-8.37-4.05-17.94-.47c0,0-1.21,2.65.94,3.11,0,0,9.1-4.06,15.56.25s6.7,9.1,6.7,9.1h-44a9,9,0,0,1,3.84-7s-3.84-3.11-4.32-4.31c0,0-15.81,12.22-33,11.49s-19.13-12.7-19.13-14.84S28.76,319,37.13,319s6.23,8.37,6.23,8.37-2.64,6.71-8.85,1.45c0,0-2.87,10.77,15.56,9.58s33.79-22,35.43-29.7c.71-3.34,5-2.86,5-2.86s5.26.71,4.8-3.84,3.11-5.51,9.81-5.75c0,0-1.67-12.46,8.63-11.74,0,0-7.18,8.15-1.44,10.76s8.62,2.65,12.2,11c0,0,7.18,1.67,10.06-2.64s-1.45-9.1-4.8-10.54c0,0,5.28-1,7.66-3.83s6-9.58,12.45-6.72c0,0,7.89-5.75,11.25.25,0,0-5.28.25-6.23,3.34s-2.87,3.87-1.68,5.55Z"/><path class="cls-3" d="M139.34,342.92l-10,.47s-3.35-7.18-5-8.63-1.67-5.74,4.32-3.59S138.85,341,139.34,342.92ZM33.51,306.29s6,4.31,6,9.33H35a12.2,12.2,0,0,0-1.45-9.33Zm69-13.41-2.4.72s-10.3-14.36,4.07-17A16.84,16.84,0,0,0,102.48,292.88Zm-3.35-18.2s-3.61-35.92,13.62-28.49c0,0-7.9,1.67-9.8,26.82l-3.82,1.67Zm-10.31.72-3.34,1.92S72.8,246.43,93.39,245c0,0-8.4,18-4.57,30.41Zm-12.43,6.94-1.92,2.15S55.07,268,68.24,257.66C68.24,257.68,69.91,276.35,76.39,282.34Zm-3.84,8.39v3.13s-21.07.71-18-13.89A29.25,29.25,0,0,0,72.55,290.73Zm1.92,8.14.94,2.86s-15.56,8.62-17.72-2.64c0,0,5.75,2.64,16.78-.22Zm2.38,6.7L79,307.49s-9.34,15.56-15.33,4.06c0,0,7.92.25,13.18-6Zm14.37-26.82s-4.55,4.78,3.11,17.24c0,0-2.64.73-1.92,6,0,0-7.42-.73-11.49,1.44a7.47,7.47,0,0,1-1.19-6.7L76.14,296l-.25-3.59s3.59,1.21,4.54,1c0,0-5-4.3-1.67-8.37,0,0,3.12,5,7.65,6.45,0,0-3.82-11.48,4.81-12.68Z"/><path class="cls-1" d="M372.18,284.73l.48,4.32a4.45,4.45,0,0,1,4.3,1.19c1.67,1.92,4.07,1.68,2.15-.71A48.56,48.56,0,0,0,375,285c-.71-.71-2.86-.94-2.86-.25Zm-224.7.25-.48,4.31a4.49,4.49,0,0,0-4.31,1.2c-1.66,1.91-4.06,1.67-2.14-.73a49.72,49.72,0,0,1,4-4.53c.73-.73,2.88-1,2.88-.25Z"/><circle class="cls-3" cx="259.83" cy="429.44" r="106.33"/><circle class="cls-2" cx="259.83" cy="429.44" r="102.64"/><circle class="cls-3" cx="259.83" cy="429.44" r="96.35"/><rect class="cls-1" x="181.43" y="313.65" width="156.8" height="40.05"/><path class="cls-3" d="M266.39,257.26s-5.38,4.31-5.38,7.53c0,0,7.26-1.07,7.26-3v9.43s-4.31-3.53-7.26-3.53c0,0-.27,3.53.54,4.33s5.65,3.22,5.65,4.3c0,0,6.73-4.3,11,1.09,0,0,5.92-4.58,10.77.81,0,0,9.41-4,12.63,4.31,0,0,8.07-3.51,11,4,0,0,8.9-2.43,10.77,6.44,0,0,9.42-.52,11.83,3.53,0,0-9.41,2.68-11,6.17,0,0-27.43-19.63-41.13-20.18,0,0,18.55,17.48,20.16,24.74,0,0-8.07-6.73-8.87-6.73,0,0-4.85,3.22-5.66,5.12,0,0-11.82-23.4-19.09-24.74,0,0-1.07,5.36-4.56,7,0,0,9.41,7.56,10.77,12.39,0,0-7.8-1.63-10.5.26,0,0-3.76-6.74-5.37-6.74s-5.65,6.74-5.65,6.74c-2.7-1.89-10.48-.26-10.48-.26,1.32-4.85,10.75-12.39,10.75-12.39-3.49-1.61-4.56-7-4.56-7-7.27,1.34-19.09,24.74-19.09,24.74-.81-1.9-5.66-5.12-5.66-5.12-.8,0-8.87,6.73-8.87,6.73,1.61-7.26,20.18-24.74,20.18-24.74-13.72.53-41.15,20.18-41.15,20.18-1.61-3.51-11-6.17-11-6.17,2.41-4,11.83-3.53,11.83-3.53,1.87-8.87,10.77-6.44,10.77-6.44,2.95-7.55,11-4,11-4,3.22-8.34,12.63-4.31,12.63-4.31,4.85-5.39,10.77-.81,10.77-.81,4.31-5.37,11-1.09,11-1.09,0-1.08,4.85-3.49,5.65-4.3s.54-4.33.54-4.33c-2.95,0-7.26,3.53-7.26,3.53v-9.43c0,1.9,7.26,3,7.26,3,0-3.22-5.37-7.53-5.37-7.53Z"/><path class="cls-3" d="M198.81,336.07H321c.27-1.55.57-3.05.94-4.52H197.87C198.26,333,198.55,334.5,198.81,336.07Z"/><path class="cls-3" d="M199.68,346h120.5a64.41,64.41,0,0,1,.67-8.89H199A68.79,68.79,0,0,1,199.68,346Zm109.68-7.18a2.73,2.73,0,1,1-2.73,2.73A2.73,2.73,0,0,1,309.36,338.84Zm-24.77,0a2.73,2.73,0,1,1-2.73,2.73A2.73,2.73,0,0,1,284.59,338.84Zm-24.76,0a2.73,2.73,0,1,1-2.73,2.73A2.73,2.73,0,0,1,259.83,338.84Zm-24.76,0a2.73,2.73,0,1,1-2.73,2.73A2.73,2.73,0,0,1,235.07,338.84Zm-24.77,0a2.73,2.73,0,1,1-2.72,2.73A2.73,2.73,0,0,1,210.3,338.84Z"/><path class="cls-3" d="M325.29,306.75h0a6.61,6.61,0,0,0-9.41-1.08s7.78,4.85,3.76,13.44-8.36,1.34-8.36,1.34,3.76-7.53-2.41-7-1.34,7.27-1.34,7.27c-.52,2.41-7.27,6.44-10,.27S303,311,303,311l-8.07-7.53-8.07,7.26s9.68,7.8,4,12.1-8.87-2.69-8.87-2.69,5.36-7-1.08-7-1.89,7-1.89,7c-6.73,7.27-12.92,3.76-12.92-4.58s12.65-9.68,12.65-9.68c-4.31-7-13.72-1.61-13.72-1.61s-2.71-6.46-5.12-6.46-5.12,6.73-5.12,6.73-9.41-5.37-13.72,1.63c0,0,12.63,1.32,12.63,9.68s-6.17,11.82-12.92,4.56c0,0,4.58-7-1.88-7s-1.09,7-1.09,7-3.22,7-8.87,2.7S233,311,233,311l-8.07-7.26-8.07,7.53s8.05,3.76,5.37,10-9.41,2.14-10-.27c0,0,4.85-6.73-1.34-7.27s-2.42,7-2.42,7-4.31,7.24-8.33-1.34,3.75-13.46,3.75-13.46a6.63,6.63,0,0,0-9.41,1.09s-9.16-11.3-18.82-5.65c0,0,15.53,7.59,21.56,28.06H322.44c6-20.55,21.58-28.35,21.58-28.35C334.44,295.48,325.29,306.75,325.29,306.75Z"/><text class="cls-4" transform="translate(234.92 389.73)">IML<tspan x="1.04" y="34.34">300</tspan><tspan x="-7.68" y="68.67">WEB</tspan><tspan x="-5.84" y="103.01">SITE</tspan></text><text class="cls-5" transform="translate(214.91 587.41)">Hecho en el</text><text class="cls-5" transform="translate(235.65 652.59)">EE.UU.</text><text class="cls-6" transform="translate(79.66 628.71)">SUR DE CALIFORNIA</text><text class="cls-7" transform="translate(428.51 393.73)">2019</text><text class="cls-7" transform="translate(39.32 393.73)">DESDE</text><text class="cls-8" transform="translate(87.53 167.21)">Jose’s</text><text class="cls-9" transform="translate(135.9 234.18)">Very Cool</text></g></g></svg>