<svg xmlns="http://www.w3.org/2000/svg" viewBox="0 0 519.66 707.4"><defs><style>.cls-1,.cls-4,.cls-5,.cls-6,.cls-7{fill:#fff;}.cls-2{fill:#022868;}.cls-3{fill:#ecb73b;}.cls-4{font-size:28.61px;font-family:HelveticaNeue-Medium, Helvetica Neue;font-weight:500;}.cls-5{font-size:19.5px;}.cls-5,.cls-6,.cls-7{font-family:HelveticaNeue-CondensedBold, Helvetica Neue;font-weight:700;}.cls-6{font-size:45.47px;}.cls-7{font-size:27px;}</style></defs><title>Asset 2</title><g id="Layer_2" data-name="Layer 2"><g id="Layer_1-2" data-name="Layer 1"><path class="cls-1" d="M435.42,0H84.24A52.12,52.12,0,0,0,32.41,46.64L0,353.7H519.66L487.25,46.64A52.12,52.12,0,0,0,435.42,0Z"/><path class="cls-2" d="M0,353.7,32.41,660.76A52.12,52.12,0,0,0,84.24,707.4H435.42a52.12,52.12,0,0,0,51.83-46.64L519.66,353.7Z"/><path class="cls-3" d="M366.43,291.43a7.76,7.76,0,0,1-8.62-4.05s-1.21,6,5.75,7.42c0,0,1.44-.48,1.66,2.15s2.41,4.3,4.32,5.76.47,5,.95,6,2.63,3.59,2.63,7,.48,6.45,5.28,8.37a15.58,15.58,0,0,1,7.18,6.46s4.54-3.11,8.37-3.83c0,0,5-12.69,16.28-14.61,0,0,.95.72.48,2.87,0,0-11.49,3.12-13.16,14.35,0,0-.25,2.65,3.11,1.69s8.37-4.07,17.94-.48c0,0,1.21,2.64-.94,3.11,0,0-9.1-4.07-15.56.24s-6.7,9.11-6.7,9.11h44.05a9.06,9.06,0,0,0-3.85-7s3.85-3.11,4.32-4.31c0,0,15.81,12.22,33,11.49s19.13-12.68,19.13-14.83-1.19-9.58-9.56-9.58-6.23,8.39-6.23,8.39,2.64,6.69,8.85,1.43c0,0,2.86,10.77-15.55,9.58s-33.79-22-35.44-29.69c-.72-3.35-5-2.87-5-2.87s-5.26.72-4.8-3.84-3.11-5.5-9.81-5.75c0,0,1.67-12.45-8.63-11.73,0,0,7.18,8.14,1.46,10.77s-8.63,2.63-12.22,11c0,0-7.18,1.67-10.06-2.64s1.44-9.1,4.8-10.54c0,0-5.28-.94-7.67-3.83s-6-9.58-12.44-6.71c0,0-7.91-5.76-11.25.24,0,0,5.28.25,6.23,3.34s2.87,3.87,1.68,5.54Z"/><path class="cls-3" d="M380.32,342.69l10.05.47s3.33-7.18,5-8.62,1.67-5.75-4.32-3.59S380.81,340.77,380.32,342.69Zm105.83-36.64s-6,4.3-6,9.34h4.54A12.22,12.22,0,0,1,486.15,306.05Zm-69-13.41,2.4.71s10.3-14.36-4.07-17a16.88,16.88,0,0,1,1.67,16.29Zm3.37-18.19s3.59-35.92-13.64-28.5c0,0,7.9,1.66,9.82,26.81l3.82,1.69Zm10.29.71,3.34,1.92s12.7-30.9-7.91-32.32C426.27,244.76,434.67,262.72,430.84,275.16Zm12.43,7,1.92,2.15s19.4-16.54,6.23-26.82c0,0-1.67,18.67-8.15,24.67Zm3.84,8.37v3.12s21.07.71,18-13.89A29.19,29.19,0,0,1,447.11,290.49Zm-1.92,8.13-.94,2.87s15.54,8.63,17.72-2.63c0,0-5.76,2.64-16.78-.24Zm-2.4,6.7-2.13,1.92S450,322.8,456,311.31A17.93,17.93,0,0,1,442.79,305.32Zm-14.35-26.81s4.55,4.8-3.11,17.25c0,0,2.63.73,1.92,6,0,0,7.42-.73,11.49,1.44a7.49,7.49,0,0,0,1.19-6.7l3.59-.73.25-3.59s-3.59,1.21-4.54,1c0,0,5-4.31,1.66-8.38,0,0-3.11,5-7.64,6.46,0,0,3.82-11.49-4.81-12.7ZM153.23,291.69a7.77,7.77,0,0,0,8.62-4.07s1.21,6-5.74,7.43c0,0-1.45-.48-1.68,2.15s-2.39,4.3-4.3,5.74-.48,5-1,6-2.65,3.57-2.65,6.94-.46,6.46-5.26,8.37a15.52,15.52,0,0,0-7.18,6.47s-4.54-3.11-8.36-3.84c0,0-5-12.7-16.29-14.61,0,0-1,.72-.48,2.87,0,0,11.51,3.13,13.16,14.36,0,0,.25,2.64-3.11,1.67s-8.37-4.05-17.94-.47c0,0-1.21,2.65.94,3.11,0,0,9.1-4.06,15.56.25s6.7,9.1,6.7,9.1h-44a9,9,0,0,1,3.84-7s-3.84-3.11-4.32-4.31c0,0-15.81,12.22-33,11.49s-19.13-12.7-19.13-14.84S28.76,319,37.13,319s6.23,8.37,6.23,8.37-2.64,6.71-8.85,1.45c0,0-2.87,10.77,15.56,9.58s33.79-22,35.43-29.7c.71-3.34,5-2.86,5-2.86s5.26.71,4.8-3.84,3.11-5.51,9.81-5.75c0,0-1.67-12.46,8.63-11.74,0,0-7.18,8.15-1.44,10.76s8.62,2.65,12.2,11c0,0,7.18,1.67,10.06-2.64s-1.45-9.1-4.8-10.54c0,0,5.28-1,7.66-3.83s6-9.58,12.45-6.72c0,0,7.89-5.75,11.25.25,0,0-5.28.25-6.23,3.34s-2.87,3.87-1.68,5.55Z"/><path class="cls-3" d="M139.34,342.92l-10,.47s-3.35-7.18-5-8.63-1.67-5.74,4.32-3.59S138.85,341,139.34,342.92ZM33.51,306.29s6,4.31,6,9.33H35a12.2,12.2,0,0,0-1.45-9.33Zm69-13.41-2.4.72s-10.3-14.36,4.07-17A16.84,16.84,0,0,0,102.48,292.88Zm-3.35-18.2s-3.61-35.92,13.62-28.49c0,0-7.9,1.67-9.8,26.82l-3.82,1.67Zm-10.31.72-3.34,1.92S72.8,246.43,93.39,245c0,0-8.4,18-4.57,30.41Zm-12.43,6.94-1.92,2.15S55.07,268,68.24,257.66C68.24,257.68,69.91,276.35,76.39,282.34Zm-3.84,8.39v3.13s-21.07.71-18-13.89A29.25,29.25,0,0,0,72.55,290.73Zm1.92,8.14.94,2.86s-15.56,8.62-17.72-2.64c0,0,5.75,2.64,16.78-.22Zm2.38,6.7L79,307.49s-9.34,15.56-15.33,4.06c0,0,7.92.25,13.18-6Zm14.37-26.82s-4.55,4.78,3.11,17.24c0,0-2.64.73-1.92,6,0,0-7.42-.73-11.49,1.44a7.47,7.47,0,0,1-1.19-6.7L76.14,296l-.25-3.59s3.59,1.21,4.54,1c0,0-5-4.3-1.67-8.37,0,0,3.12,5,7.65,6.45,0,0-3.82-11.48,4.81-12.68Z"/><path class="cls-1" d="M372.18,284.73l.48,4.32a4.45,4.45,0,0,1,4.3,1.19c1.67,1.92,4.07,1.68,2.15-.71A48.56,48.56,0,0,0,375,285c-.71-.71-2.86-.94-2.86-.25Zm-224.7.25-.48,4.31a4.49,4.49,0,0,0-4.31,1.2c-1.66,1.91-4.06,1.67-2.14-.73a49.72,49.72,0,0,1,4-4.53c.73-.73,2.88-1,2.88-.25Z"/><circle class="cls-3" cx="259.83" cy="429.44" r="106.33"/><circle class="cls-2" cx="259.83" cy="429.44" r="102.64"/><circle class="cls-3" cx="259.83" cy="429.44" r="96.35"/><rect class="cls-1" x="181.43" y="313.65" width="156.8" height="40.05"/><path class="cls-3" d="M266.39,257.26s-5.38,4.31-5.38,7.53c0,0,7.26-1.07,7.26-3v9.43s-4.31-3.53-7.26-3.53c0,0-.27,3.53.54,4.33s5.65,3.22,5.65,4.3c0,0,6.73-4.3,11,1.09,0,0,5.92-4.58,10.77.81,0,0,9.41-4,12.63,4.31,0,0,8.07-3.51,11,4,0,0,8.9-2.43,10.77,6.44,0,0,9.42-.52,11.83,3.53,0,0-9.41,2.68-11,6.17,0,0-27.43-19.63-41.13-20.18,0,0,18.55,17.48,20.16,24.74,0,0-8.07-6.73-8.87-6.73,0,0-4.85,3.22-5.66,5.12,0,0-11.82-23.4-19.09-24.74,0,0-1.07,5.36-4.56,7,0,0,9.41,7.56,10.77,12.39,0,0-7.8-1.63-10.5.26,0,0-3.76-6.74-5.37-6.74s-5.65,6.74-5.65,6.74c-2.7-1.89-10.48-.26-10.48-.26,1.32-4.85,10.75-12.39,10.75-12.39-3.49-1.61-4.56-7-4.56-7-7.27,1.34-19.09,24.74-19.09,24.74-.81-1.9-5.66-5.12-5.66-5.12-.8,0-8.87,6.73-8.87,6.73,1.61-7.26,20.18-24.74,20.18-24.74-13.72.53-41.15,20.18-41.15,20.18-1.61-3.51-11-6.17-11-6.17,2.41-4,11.83-3.53,11.83-3.53,1.87-8.87,10.77-6.44,10.77-6.44,2.95-7.55,11-4,11-4,3.22-8.34,12.63-4.31,12.63-4.31,4.85-5.39,10.77-.81,10.77-.81,4.31-5.37,11-1.09,11-1.09,0-1.08,4.85-3.49,5.65-4.3s.54-4.33.54-4.33c-2.95,0-7.26,3.53-7.26,3.53v-9.43c0,1.9,7.26,3,7.26,3,0-3.22-5.37-7.53-5.37-7.53Z"/><path class="cls-3" d="M198.81,336.07H321c.27-1.55.57-3.05.94-4.52H197.87C198.26,333,198.55,334.5,198.81,336.07Z"/><path class="cls-3" d="M199.68,346h120.5a64.41,64.41,0,0,1,.67-8.89H199A68.79,68.79,0,0,1,199.68,346Zm109.68-7.18a2.73,2.73,0,1,1-2.73,2.73A2.73,2.73,0,0,1,309.36,338.84Zm-24.77,0a2.73,2.73,0,1,1-2.73,2.73A2.73,2.73,0,0,1,284.59,338.84Zm-24.76,0a2.73,2.73,0,1,1-2.73,2.73A2.73,2.73,0,0,1,259.83,338.84Zm-24.76,0a2.73,2.73,0,1,1-2.73,2.73A2.73,2.73,0,0,1,235.07,338.84Zm-24.77,0a2.73,2.73,0,1,1-2.72,2.73A2.73,2.73,0,0,1,210.3,338.84Z"/><path class="cls-3" d="M325.29,306.75h0a6.61,6.61,0,0,0-9.41-1.08s7.78,4.85,3.76,13.44-8.36,1.34-8.36,1.34,3.76-7.53-2.41-7-1.34,7.27-1.34,7.27c-.52,2.41-7.27,6.44-10,.27S303,311,303,311l-8.07-7.53-8.07,7.26s9.68,7.8,4,12.1-8.87-2.69-8.87-2.69,5.36-7-1.08-7-1.89,7-1.89,7c-6.73,7.27-12.92,3.76-12.92-4.58s12.65-9.68,12.65-9.68c-4.31-7-13.72-1.61-13.72-1.61s-2.71-6.46-5.12-6.46-5.12,6.73-5.12,6.73-9.41-5.37-13.72,1.63c0,0,12.63,1.32,12.63,9.68s-6.17,11.82-12.92,4.56c0,0,4.58-7-1.88-7s-1.09,7-1.09,7-3.22,7-8.87,2.7S233,311,233,311l-8.07-7.26-8.07,7.53s8.05,3.76,5.37,10-9.41,2.14-10-.27c0,0,4.85-6.73-1.34-7.27s-2.42,7-2.42,7-4.31,7.24-8.33-1.34,3.75-13.46,3.75-13.46a6.63,6.63,0,0,0-9.41,1.09s-9.16-11.3-18.82-5.65c0,0,15.53,7.59,21.56,28.06H322.44c6-20.55,21.58-28.35,21.58-28.35C334.44,295.48,325.29,306.75,325.29,306.75Z"/><text class="cls-4" transform="translate(234.92 389.73)">IML<tspan x="1.04" y="34.34">300</tspan><tspan x="-7.68" y="68.67">WEB</tspan><tspan x="-5.84" y="103.01">SITE</tspan></text><text class="cls-5" transform="translate(214.91 587.41)">Hecho en el</text><text class="cls-5" transform="translate(235.65 652.59)">EE.UU.</text><text class="cls-6" transform="translate(79.66 628.71)">SUR DE CALIFORNIA</text><text class="cls-7" transform="translate(428.51 393.73)">2019</text><text class="cls-7" transform="translate(39.32 393.73)">DESDE</text><path class="cls-2" d="M157.41,73.15v.31a11.11,11.11,0,0,0-1.55,4.19,1.24,1.24,0,0,0-.15.77h.15v72.21q0,4-3.72,9.76-6.81,10.38-25.41,12.86a38.76,38.76,0,0,1-5.26.46h-3A38.94,38.94,0,0,1,103,170.46q-8.84-3.72-11.93-10.07a18.8,18.8,0,0,1-1.86-8.52,15,15,0,0,1,3.56-10.08,11.49,11.49,0,0,1,9.14-4.18,10.36,10.36,0,0,1,4.26.93,12.06,12.06,0,0,1,3.72,2.56,12.46,12.46,0,0,1,2.56,3.64,9.87,9.87,0,0,1,.93,4.18,9.6,9.6,0,0,1-2.79,6.82,8.71,8.71,0,0,1-6.51,2.94,9.75,9.75,0,0,1-3.1-.46,12.75,12.75,0,0,0,6,6.35,19.34,19.34,0,0,0,10.07,2.33l.31.15h.62a23.65,23.65,0,0,0,13.79-4.18,13.6,13.6,0,0,0,6.5-11.93V88.34q0-7.12,17.2-16a2.88,2.88,0,0,1,.7-.23,4.19,4.19,0,0,0,1-.39l.46,1.08Zm-18.28-.31q-.31,6.36-5.89,11-5.73,4.81-11.77,4.81a5.5,5.5,0,0,1-1.71.15,42.17,42.17,0,0,1-10.84-2,50.22,50.22,0,0,0-6-1.55,24.7,24.7,0,0,0-4.26-.47h-.31a6.12,6.12,0,0,1-2,.47c-.82.41-1.73.9-2.71,1.47A35.07,35.07,0,0,0,90.32,89v-1.4q0-9.28,10.69-14.72a25.29,25.29,0,0,1,3.33-1.24c1.09-.31,2-.56,2.87-.77a2.4,2.4,0,0,0,.78-.16h2.32a40.88,40.88,0,0,1,5.5.39,44,44,0,0,1,6.12,1.32q7.74,2.18,9.14,2.17a11.78,11.78,0,0,0,3.57-.54,18.16,18.16,0,0,0,3.56-1.63ZM136,86.17a20.54,20.54,0,0,0-2.32,9.76v53.92a1.71,1.71,0,0,1-.08.54,1.41,1.41,0,0,0-.08.39,1.45,1.45,0,0,0-.15.62l-.16.16v.15a15.55,15.55,0,0,1-3.18,4.42,35.19,35.19,0,0,1-5,4.1,24.91,24.91,0,0,1-12.55,3.57Q117,158.37,117,155V127.54l-.15-.16-.16-.15h.16l-1.17-.39a5.06,5.06,0,0,1-.54-.23H115l-.16-.15h-.62l-.31-.16a5.32,5.32,0,0,0-2.94,1.16,3.7,3.7,0,0,0-1.4,2.56l.16.15v1.4q-9-1.71-9-9.61a10.87,10.87,0,0,1,3.8-8.68,14.4,14.4,0,0,1,9.68-3.25h1.09l.31.16h.93l.15.15H117v-9.61q0-5.57,11-11.62v.16c.41-.21.93-.49,1.55-.85s1.34-.8,2.17-1.32v.15c.41-.2.88-.46,1.4-.77l1.55-.93.31-.31h.46Z"/><path class="cls-2" d="M215.05,156.05q.93,4.5,3.57,5.73-16.74,2.49-26.81,13.48-9-9.28-31.3-11.62c-.41,0-.62-.15-.62-.46,0-.62.62-1.71,1.86-3.26a49.48,49.48,0,0,1,3.88-4.8v-39.2c-1.66-2.07-2.48-3.72-2.48-5v-.15q16.11-.93,26-9.3Q207,110.35,218,111.43q-3,3.41-2.95,4.8ZM196.92,118.4q-12.54-5.27-14.1-5.27c-.2,0-.31.05-.31.15V154q2.49,2.63,14.41,5.11Z"/><path class="cls-2" d="M281.06,104.3q-4,12.39-17,25.72l14.56-.31a5.36,5.36,0,0,1-.08.62,4.64,4.64,0,0,0-.07.62,1.63,1.63,0,0,0-.16.77l-.15.16v.31l-.31.31v.31l-.16.31a1.05,1.05,0,0,1-.08.46.73.73,0,0,0-.07.31v-.15c-.11.31-.21.67-.31,1.08l-.16.62v26.34a.61.61,0,0,0,.16.47v.46l.15.31v-.15a.47.47,0,0,1,.16.31l.15.77-.15-.31-.16-.15a1.57,1.57,0,0,0,.31.62l.93,1.55.62,1.24a6.52,6.52,0,0,1-2-.16h.15a.64.64,0,0,0-.46-.15c-1.24,0-2.28,0-3.1-.08a4.43,4.43,0,0,1-2-.54,12.87,12.87,0,0,1-2.79-.16H268q-11.78,0-19.36,8.06l-4.5-4.49a11.16,11.16,0,0,0-2.32-1.63,5.51,5.51,0,0,0-2.48-.54,6,6,0,0,0-2.63-.47q-7.14,0-9.92,6.82h-4.49a43,43,0,0,1,4.33-11.08A84,84,0,0,1,235,150.32l.62-.62c.31-.31.7-.72,1.16-1.24s1-1.09,1.63-1.71l-10.23-.46,1.09-1.09-.16.47a6.38,6.38,0,0,0,1.4-3.88l.15-.31-.15-27a.32.32,0,0,0-.08-.23.32.32,0,0,1-.08-.23v.15a1.24,1.24,0,0,1-.15-.77l-.47-1.08v-.16a1.26,1.26,0,0,1-.31-.93v-1.39a4.81,4.81,0,0,0,3.26,1.39q1.08.62,5.42.62a3.85,3.85,0,0,0,1.55.15,28.83,28.83,0,0,0,13.79-3.56,73.59,73.59,0,0,0,6.2-5.89q4.95,5.75,9.29,5.74,4.5,0,7.29-4.5l4.18-.31Zm-20,56.24V141l-.31-.31h-7.9l-8.06,8.06c-.72.72-1.55,1.62-2.48,2.71s-2.06,2.3-3.41,3.64l3.26-.54a13.43,13.43,0,0,1,2.17-.23q8.06,0,13.79,7.12l.62-.31.46-.15a3.48,3.48,0,0,0,1.09-.31h.62Zm5.11-41.06a14.33,14.33,0,0,1-5.57,1.09q-4.5,0-10.23-4.5a1.82,1.82,0,0,0-.62.31h-.62a3.87,3.87,0,0,1-1.7.47v19.52h1.7a23.41,23.41,0,0,0,3.49-2.94q2.24-2.18,5.81-5.74Q263.71,122.13,266.18,119.48Z"/><path class="cls-2" d="M333.27,127.07q-1.86.93-7.36,4.11t-15,8.76a29.38,29.38,0,0,0-3.1,2v11.62a68.87,68.87,0,0,1,8.91,2,52.65,52.65,0,0,1,7.67,2.94l3.72-3.87,3.87,3.56-14.1,15.49-1.55-.77q-3.24-1.71-6.35-3.18a29.28,29.28,0,0,0-7.13-2.24,60,60,0,0,0-11.77-1.4,31,31,0,0,0-3.72.23c-1.24.16-2.48.34-3.72.55a10.38,10.38,0,0,1,.62-1.32,4.16,4.16,0,0,1,.62-.85v.15l1.78-2.79c.47-.72.75-1.13.85-1.24a23.77,23.77,0,0,1,4.19-3.72V119.64q0-2.33-2.48-7.75v-2.17l1.39,1.4h.93l.16.15h.46l.47.16h.62q12.24,0,27.58-10.23.76,2.79,2,6a62.2,62.2,0,0,0,3.41,7.28q2,3.57,3.8,6.59c1.18,2,2.3,3.74,3.33,5.19ZM309.1,114.83l-1.24.31V135l8.37-5.43c-.41-.62-.91-1.41-1.47-2.4s-1.22-2.24-1.94-3.79c-.72-1.35-1.39-2.74-2-4.19S309.62,116.28,309.1,114.83Z"/><path class="cls-2" d="M346.6,102.44l-1.7-2.33q5-3.56,5-7.43,0-5-8.36-8.68a93.31,93.31,0,0,0,13.32-12.86q9.45,6.66,9.45,13Q364.26,95.31,346.6,102.44Z"/><path class="cls-2" d="M430.42,104.3q-4,12.39-17,25.72l14.56-.31a4.64,4.64,0,0,1-.07.62,3.73,3.73,0,0,0-.08.62,1.76,1.76,0,0,0-.16.77l-.15.16v.31l-.31.31v.31l-.16.31a1.08,1.08,0,0,1-.07.46.62.62,0,0,0-.08.31v-.15c-.1.31-.21.67-.31,1.08l-.15.62v26.34a.65.65,0,0,0,.15.47v.46l.16.31v-.15a.45.45,0,0,1,.15.31l.15.77-.15-.31-.15-.15a1.64,1.64,0,0,0,.3.62c.32.52.62,1,.93,1.55l.62,1.24a6.62,6.62,0,0,1-2-.16h.16a.66.66,0,0,0-.47-.15c-1.24,0-2.27,0-3.1-.08a4.35,4.35,0,0,1-2-.54,12.87,12.87,0,0,1-2.79-.16h-.93q-11.78,0-19.37,8.06l-4.49-4.49a11.2,11.2,0,0,0-2.33-1.63,5.48,5.48,0,0,0-2.48-.54,6,6,0,0,0-2.63-.47q-7.12,0-9.92,6.82H371.7A42.7,42.7,0,0,1,376,162.48a83.05,83.05,0,0,1,8.36-12.16l.62-.62c.31-.31.7-.72,1.17-1.24s1-1.09,1.62-1.71l-10.22-.46,1.08-1.09-.15.47a6.37,6.37,0,0,0,1.39-3.88l.16-.31-.16-27a.32.32,0,0,0-.08-.23.32.32,0,0,1-.07-.23v.15c-.11-.1-.16-.36-.16-.77l-.46-1.08v-.16a1.26,1.26,0,0,1-.31-.93v-1.39a4.79,4.79,0,0,0,3.25,1.39q1.08.62,5.42.62a3.89,3.89,0,0,0,1.55.15,28.83,28.83,0,0,0,13.79-3.56,71.82,71.82,0,0,0,6.2-5.89c3.31,3.83,6.4,5.74,9.3,5.74s5.42-1.5,7.28-4.5l4.18-.31Zm-20,56.24V141l-.31-.31h-7.91l-8.05,8.06c-.73.72-1.55,1.62-2.48,2.71s-2.07,2.3-3.41,3.64l3.25-.54a13.43,13.43,0,0,1,2.17-.23q8.06,0,13.79,7.12l.62-.31.47-.15a3.51,3.51,0,0,0,1.08-.31h.62Zm5.11-41.06a14.42,14.42,0,0,1-5.58,1.09q-4.5,0-10.23-4.5a1.93,1.93,0,0,0-.62.31h-.61a3.91,3.91,0,0,1-1.71.47v19.52h1.71a24,24,0,0,0,3.48-2.94c1.5-1.45,3.43-3.36,5.81-5.74Q413.07,122.13,415.55,119.48Z"/><path class="cls-2" d="M176.24,196.61l-.13.14v.2L176,197a6.65,6.65,0,0,1-3.41,3.81v29.61a3.51,3.51,0,0,0,1,1.94,18.12,18.12,0,0,0-2.54-.54h-.27l-.2-.07h-.27a21.43,21.43,0,0,0-14.77,5.95,18.83,18.83,0,0,0-2.48-2.13,8.36,8.36,0,0,0-2.07-1.14,20.2,20.2,0,0,0-5.88-1.07,9.83,9.83,0,0,0-5.41,1.34l-.34-.34a.9.9,0,0,0,.17-.3,1,1,0,0,0,.1-.43H140a16.35,16.35,0,0,1,2.84-3.78,7.53,7.53,0,0,1,3.37-1.91v-26.2a3.38,3.38,0,0,0-.6-1.2,3.87,3.87,0,0,0-3.47-1.87c-2.37,0-3.79,1.49-4.28,4.48a5.58,5.58,0,0,1-1.27-3.41,5.85,5.85,0,0,1,1.67-3.95,9.26,9.26,0,0,1,3.74-2.67,7.52,7.52,0,0,1,2.74-.4l.14-.14q5.74.48,7.88,4.48a7.66,7.66,0,0,1,.74,3.21v27.07a2.1,2.1,0,0,0,1.34.27,5.15,5.15,0,0,1,.57.27,2.69,2.69,0,0,0,.43.2V192.8h2.34v5.35l9-6.55q4.28,5.22,6.95,5.22a6.77,6.77,0,0,0,2.14-.87Zm-11.23,11v-6.82l-.2-.13a7.61,7.61,0,0,1-3.07-2.21l-3.54,2.67v6.35a5.74,5.74,0,0,0,2.6.6h1.67A6.61,6.61,0,0,0,165,207.58Zm-.26,10.89.26.14v-8.49a6.58,6.58,0,0,1-2.4.4h-2.08c-.17,0-.29,0-.33-.07a7.56,7.56,0,0,1-2-.2v8a3.21,3.21,0,0,0,1.53-.27h.47l.13-.06h1a8.92,8.92,0,0,1,3.21.47A.28.28,0,0,0,164.75,218.47ZM165,230v-9a.21.21,0,0,0-.13-.07l-.4-.06-.07-.07a.75.75,0,0,1-.23,0,.41.41,0,0,0-.17,0c-.36-.09-.7-.15-1-.2a7.93,7.93,0,0,1-1-.2h-.74v-.13h-.33a5.13,5.13,0,0,0-1.54.26,1.22,1.22,0,0,0-.33.07h-.4s-.07,0-.07.07h.07a1,1,0,0,1-.4.07V229l.13.14.27.13.13.14h-.07c.89.62,1.74,1.24,2.54,1.87h.07l2.47-1a2.56,2.56,0,0,0,.44-.06Z"/><path class="cls-2" d="M198.77,216.87c-.54.27-1.59.86-3.18,1.77s-3.73,2.17-6.45,3.78a12.35,12.35,0,0,0-1.33.87v5a28.6,28.6,0,0,1,3.84.87,22.74,22.74,0,0,1,3.31,1.27l1.6-1.67,1.67,1.53L192.15,237l-.67-.34c-.93-.49-1.85-.94-2.74-1.37a13.18,13.18,0,0,0-3.07-1,26,26,0,0,0-5.08-.6,14.5,14.5,0,0,0-1.61.1c-.53.07-1.07.15-1.6.24a5.15,5.15,0,0,1,.27-.57,1.69,1.69,0,0,1,.26-.37v.07l.77-1.2a6,6,0,0,1,.37-.54,9.61,9.61,0,0,1,1.81-1.6V213.66a9.69,9.69,0,0,0-1.07-3.34v-.94l.6.6h.4l.07.07h.2l.2.07h.26q5.28,0,11.9-4.41a27,27,0,0,0,2.34,5.74c.58,1,1.13,2,1.64,2.84s1,1.62,1.44,2.24Zm-10.43-5.28-.53.13v8.56l3.61-2.34c-.18-.27-.39-.61-.64-1s-.52-1-.83-1.64a17.59,17.59,0,0,1-.87-1.8C188.81,212.84,188.56,212.21,188.34,211.59Z"/><path class="cls-2" d="M206.32,205.3c2.77,1.65,4.37,2.83,4.82,3.55h.2a2.74,2.74,0,0,0,.8-.2,25.93,25.93,0,0,0,4.94-2.81l.94-.67a16.1,16.1,0,0,0,6.28,3.94,3.74,3.74,0,0,1-1.6,2.48,6.13,6.13,0,0,1-3.28,1.2,5.42,5.42,0,0,1-.86.07,19.29,19.29,0,0,1-5.08-.8,5.07,5.07,0,0,0-1.07-.14c-.76,0-1.14.27-1.14.8V231h2.87a19,19,0,0,0-6,5q-1.2,1.8-1.41,1.8v-.13l-.06-.07c0-.13-.09-.27-.14-.4a6.91,6.91,0,0,0-.8-1.34,16.73,16.73,0,0,0-5.15-4.28l-.06-.4h2.6V213.79c-.75-2.18-1.87-3.32-3.34-3.41Z"/><path class="cls-2" d="M253.25,209.78v.34l-.07.06a2.24,2.24,0,0,1-.3,1,7.55,7.55,0,0,1-.7,1.1,5.39,5.39,0,0,1-.94,1,4.72,4.72,0,0,1-1,.64v17.84q0,3.48-5.82,4.82l-1.5.23a8.44,8.44,0,0,1-1.24.1h-.4l-.6.07c-4.72.35-7.09,1.42-7.09,3.21,0,.67.43,1,1.27,1a17,17,0,0,0,4.08-1.94,12.58,12.58,0,0,1,6-1.87,5.87,5.87,0,0,1,4,1.47,4.71,4.71,0,0,1,1.67,3.68,4.11,4.11,0,0,1-1.44,3.21,5.15,5.15,0,0,1-3.51,1.27,3.59,3.59,0,0,1-2.4-.54v-2.27a4.21,4.21,0,0,0,2.07.6h.07l.13-.07h.2a1.87,1.87,0,0,0,.94-.33c.35-.23.53-.47.53-.74,0-.44-.29-.67-.87-.67l-.13-.06h-.07a8.76,8.76,0,0,0-4.14,1.6,26.45,26.45,0,0,1-2.64,1.54,8.6,8.6,0,0,1-1.71.67,7,7,0,0,1-.8.1q-.47,0-1.2,0a5.8,5.8,0,0,1-2.21-.43,6.17,6.17,0,0,1-1.87-1.17,5.88,5.88,0,0,1-1.3-1.71,4.43,4.43,0,0,1-.51-2.1v-.34h.07a5.54,5.54,0,0,1,3.41-5,8.21,8.21,0,0,1-2.41-1.67,4.14,4.14,0,0,1-1.6-3V214c0-1-1.07-1.64-3.21-1.87v-.47l7.15-5.61a6.79,6.79,0,0,1,1,.73,8.54,8.54,0,0,1,1,1.07,4.74,4.74,0,0,1,1.14,2.28l.06.13v.4l.07.07v2.61l10-6.76c1.38,1.88,2.89,2.81,4.54,2.81h.13l.07-.07a3.25,3.25,0,0,0,2.07-.73v1.07Zm-10.36,23.06V214.6a3.93,3.93,0,0,1-.54-.2l-.6-.27-1.14-.54-4.07,2.81v16c0,.9.78,1.5,2.34,1.81h.26a.35.35,0,0,1,.14,0,.49.49,0,0,0,.2,0,.18.18,0,0,1,.1,0,.13.13,0,0,0,.1,0h.4l.13-.07A4.68,4.68,0,0,0,242,234,1.19,1.19,0,0,0,242.89,232.84Z"/><path class="cls-2" d="M319.69,197.55a8.83,8.83,0,0,1-7.15,2.94c-.5,0-1,0-1.54-.07v29.42l1.67-.67h.2a.51.51,0,0,1,.53.33,1,1,0,0,1,.07.34.57.57,0,0,1-.27.46c-.22.18-.64.52-1.27,1l-.66.53-.27.2v7.09c0,1.69-1,2.54-3.08,2.54s-3.14-.85-3.14-2.54,1.05-2.54,3.14-2.54c.32,0,.47-.07.47-.2v-3.14a27.35,27.35,0,0,1-13.3,3.14h-.6q-9.69,0-15.84-5.28-6.28-5.49-6.29-14.71t8.42-16.51q8.1-7,17.45-7v.8a16.37,16.37,0,0,0-6,3.41q-5.28,4.62-7.09,9a17.31,17.31,0,0,0-1.14,6.55c0,.84.05,1.74.14,2.67q.39,4.14,4.34,8.62a28,28,0,0,0,3.88,3.61l1.87-1.93v-23l-.67-1.74A32.32,32.32,0,0,0,310,191.07a10.38,10.38,0,0,0,5.88,5.54A10.93,10.93,0,0,0,319.69,197.55Zm-11.37,2.54c-2.09-1.34-3.43-2-4-2-.26,0-.4.11-.4.33v24l-8.22,7q1.74,1.47,6.69,1.47a51.26,51.26,0,0,0,5.94-.41Z"/><path class="cls-2" d="M338.74,229.37a3.21,3.21,0,0,0,1.54,2.47,18.87,18.87,0,0,0-11.57,5.82q-3.87-4-13.5-5c-.18,0-.27-.06-.27-.2a3.15,3.15,0,0,1,.8-1.4,20.81,20.81,0,0,1,1.67-2.07V212.06a3.93,3.93,0,0,1-1.06-2.14v-.07q6.94-.4,11.22-4,7.69,3.81,12.44,4.28a4.37,4.37,0,0,0-1.27,2.07Zm-7.82-16.24a37.5,37.5,0,0,0-6.09-2.28c-.09,0-.13,0-.13.07V228.5c.71.76,2.79,1.49,6.22,2.21Z"/><path class="cls-2" d="M365.21,229.37a3.21,3.21,0,0,0,1.54,2.47,18.87,18.87,0,0,0-11.57,5.82q-3.87-4-13.5-5c-.18,0-.27-.06-.27-.2a3.15,3.15,0,0,1,.8-1.4,19.15,19.15,0,0,1,1.68-2.07V212.06a3.89,3.89,0,0,1-1.07-2.14v-.07q6.94-.4,11.23-4,7.68,3.81,12.43,4.28a4.37,4.37,0,0,0-1.27,2.07Zm-7.82-16.24a38,38,0,0,0-6.08-2.28c-.09,0-.14,0-.14.07V228.5c.71.76,2.79,1.49,6.22,2.21Z"/><path class="cls-2" d="M376.51,237a19.17,19.17,0,0,0-8.23-4.15,9.06,9.06,0,0,1,3.21-3.34V202.23l-.4-2.07a.13.13,0,0,0,0-.1.12.12,0,0,1,0-.1V200a1.2,1.2,0,0,1-.06-.46l-.14-.2-.06-.07a.82.82,0,0,0-.07-.34l-.07-.13V198a2.68,2.68,0,0,0,.6.24,2.83,2.83,0,0,0,.41,0q2.34,0,7.35-4l.33.27a7.09,7.09,0,0,0-.47,1.27c-.13.49-.29,1-.46,1.67a12.41,12.41,0,0,0-.47,2.87v28.54a15.76,15.76,0,0,1,2.14,1.41l-.07-.07h.07l.13.07a2.25,2.25,0,0,1,.4.47l.2.2,1-.94,1.33,1.74Z"/></g></g></svg>