<svg xmlns="http://www.w3.org/2000/svg" viewBox="0 0 51 24"><defs><style>.cls-1{isolation:isolate;}.cls-2{mix-blend-mode:lighten;}.cls-3{fill:blue;}.cls-4{fill:lime;}.cls-5{fill:red;}</style></defs><title>Asset 4</title><g class="cls-1"><g id="Layer_2" data-name="Layer 2"><g id="Layer_1-2" data-name="Layer 1"><g class="cls-2"><polygon class="cls-3" points="49 6 49 5 49 4 48 4 48 3 47 3 47 2 46 2 45 2 45 1 44 1 43 1 42 1 41 1 41 2 40 2 39 2 39 3 38 3 38 4 37 4 37 5 37 6 36 6 35 6 35 5 35 4 34 4 34 3 33 3 33 2 32 2 31 2 31 1 30 1 29 1 28 1 27 1 27 2 26 2 25 2 25 3 24 3 24 4 23 4 23 5 23 6 22 6 21 6 21 5 21 4 20 4 20 3 19 3 19 2 18 2 17 2 17 1 16 1 15 1 14 1 13 1 13 2 12 2 11 2 11 3 10 3 10 4 9 4 9 5 9 6 8 6 8 1 1 1 1 17 1 23 2 23 3 23 3 22 4 22 5 22 5 21 6 21 6 20 7 20 7 19 7 18 8 18 8 17 8 10 9 10 9 11 9 12 10 12 10 13 11 13 11 14 12 14 13 14 13 15 14 15 15 15 16 15 17 15 17 14 18 14 19 14 19 13 20 13 20 12 21 12 21 11 21 10 22 10 23 10 23 11 23 12 24 12 24 13 25 13 25 14 26 14 26 15 22 15 22 16 22 17 22 18 23 18 23 19 23 20 24 20 24 21 25 21 25 22 26 22 27 22 27 23 28 23 29 23 30 23 31 23 31 22 32 22 33 22 33 21 34 21 34 20 35 20 35 19 35 18 36 18 36 17 36 16 36 15 36 14 35 14 35 13 35 12 34 12 34 11 33 11 33 10 32 10 32 9 36 9 36 10 37 10 37 11 37 12 38 12 38 13 39 13 39 14 40 14 41 14 41 15 42 15 43 15 44 15 45 15 45 14 46 14 47 14 47 13 48 13 48 12 49 12 49 11 46 11 46 10 45 10 45 9 44 9 44 8 50 8 50 7 50 6 49 6"/></g><g class="cls-2"><polygon class="cls-4" points="50 5 50 4 50 3 49 3 49 2 48 2 48 1 47 1 46 1 46 0 45 0 44 0 43 0 42 0 42 1 41 1 40 1 40 2 39 2 39 3 38 3 38 4 38 5 37 5 36 5 36 4 36 3 35 3 35 2 34 2 34 1 33 1 32 1 32 0 31 0 30 0 29 0 28 0 28 1 27 1 26 1 26 2 25 2 25 3 24 3 24 4 24 5 23 5 22 5 22 4 22 3 21 3 21 2 20 2 20 1 19 1 18 1 18 0 17 0 16 0 15 0 14 0 14 1 13 1 12 1 12 2 11 2 11 3 10 3 10 4 10 5 9 5 9 0 2 0 2 16 2 22 3 22 4 22 4 21 5 21 6 21 6 20 7 20 7 19 8 19 8 18 8 17 9 17 9 16 9 9 10 9 10 10 10 11 11 11 11 12 12 12 12 13 13 13 14 13 14 14 15 14 16 14 17 14 18 14 18 13 19 13 20 13 20 12 21 12 21 11 22 11 22 10 22 9 23 9 24 9 24 10 24 11 25 11 25 12 26 12 26 13 27 13 27 14 23 14 23 15 23 16 23 17 24 17 24 18 24 19 25 19 25 20 26 20 26 21 27 21 28 21 28 22 29 22 30 22 31 22 32 22 32 21 33 21 34 21 34 20 35 20 35 19 36 19 36 18 36 17 37 17 37 16 37 15 37 14 37 13 36 13 36 12 36 11 35 11 35 10 34 10 34 9 33 9 33 8 37 8 37 9 38 9 38 10 38 11 39 11 39 12 40 12 40 13 41 13 42 13 42 14 43 14 44 14 45 14 46 14 46 13 47 13 48 13 48 12 49 12 49 11 50 11 50 10 47 10 47 9 46 9 46 8 45 8 45 7 51 7 51 6 51 5 50 5"/></g><g class="cls-2"><polygon class="cls-5" points="48 7 48 6 48 5 47 5 47 4 46 4 46 3 45 3 44 3 44 2 43 2 42 2 41 2 40 2 40 3 39 3 38 3 38 4 37 4 37 5 36 5 36 6 36 7 35 7 34 7 34 6 34 5 33 5 33 4 32 4 32 3 31 3 30 3 30 2 29 2 28 2 27 2 26 2 26 3 25 3 24 3 24 4 23 4 23 5 22 5 22 6 22 7 21 7 20 7 20 6 20 5 19 5 19 4 18 4 18 3 17 3 16 3 16 2 15 2 14 2 13 2 12 2 12 3 11 3 10 3 10 4 9 4 9 5 8 5 8 6 8 7 7 7 7 2 0 2 0 18 0 24 1 24 2 24 2 23 3 23 4 23 4 22 5 22 5 21 6 21 6 20 6 19 7 19 7 18 7 11 8 11 8 12 8 13 9 13 9 14 10 14 10 15 11 15 12 15 12 16 13 16 14 16 15 16 16 16 16 15 17 15 18 15 18 14 19 14 19 13 20 13 20 12 20 11 21 11 22 11 22 12 22 13 23 13 23 14 24 14 24 15 25 15 25 16 21 16 21 17 21 18 21 19 22 19 22 20 22 21 23 21 23 22 24 22 24 23 25 23 26 23 26 24 27 24 28 24 29 24 30 24 30 23 31 23 32 23 32 22 33 22 33 21 34 21 34 20 34 19 35 19 35 18 35 17 35 16 35 15 34 15 34 14 34 13 33 13 33 12 32 12 32 11 31 11 31 10 35 10 35 11 36 11 36 12 36 13 37 13 37 14 38 14 38 15 39 15 40 15 40 16 41 16 42 16 43 16 44 16 44 15 45 15 46 15 46 14 47 14 47 13 48 13 48 12 45 12 45 11 44 11 44 10 43 10 43 9 49 9 49 8 49 7 48 7"/></g></g></g></g></svg>